<?xml version="1.0" standalone="no"?>
<!DOCTYPE svg PUBLIC "-//W3C//DTD SVG 20010904//EN"
 "http://www.w3.org/TR/2001/REC-SVG-20010904/DTD/svg10.dtd">
<svg version="1.0" xmlns="http://www.w3.org/2000/svg"
 width="175.000000pt" height="175.000000pt" viewBox="0 0 175.000000 175.000000"
 preserveAspectRatio="xMidYMid meet">
<metadata>
Created by potrace 1.14, written by Peter Selinger 2001-2017
</metadata>
<g transform="translate(0.000000,175.000000) scale(0.100000,-0.100000)"
fill="#000000" stroke="none">
<path d="M838 1743 c-2 -5 -4 -46 -3 -93 l1 -85 -51 -25 c-150 -75 -153 -288
-5 -365 17 -9 30 -17 30 -20 0 -2 -43 -102 -94 -222 l-95 -218 -53 -2 c-29 -1
-70 -2 -91 -2 -31 -1 -38 -4 -35 -18 3 -15 15 -18 66 -20 34 -1 68 -2 76 -2
11 -1 5 -23 -25 -88 -22 -49 -44 -97 -48 -108 -31 -70 -46 -104 -61 -136 -18
-39 -12 -74 17 -97 17 -12 11 -37 -55 -232 -3 -10 -2 -12 6 -5 5 6 31 57 57
115 26 58 57 128 70 155 12 28 55 124 96 215 40 91 75 168 78 172 9 10 121 15
122 6 1 -4 2 -17 3 -28 3 -46 56 -46 56 0 0 23 5 28 29 32 16 2 44 2 63 0 30
-3 38 -10 53 -45 10 -23 32 -73 50 -112 17 -38 76 -170 130 -292 54 -123 101
-223 105 -223 4 0 -10 51 -31 112 l-37 113 24 26 c13 14 24 32 24 41 0 14
-102 254 -146 342 -8 16 -12 31 -10 33 2 2 36 4 75 5 39 0 74 5 77 10 13 20
-16 29 -97 31 l-83 2 -95 219 c-91 209 -94 220 -76 230 11 6 39 29 61 51 103
99 75 264 -54 325 l-52 25 1 65 c2 123 3 120 -35 120 -19 0 -36 -3 -38 -7z
m115 -279 c71 -53 70 -162 -4 -215 -42 -30 -110 -28 -153 5 -37 28 -59 78 -52
117 3 13 5 29 5 34 1 14 42 59 66 74 28 16 107 8 138 -15z m-14 -601 c34 -78
61 -144 61 -147 0 -3 -22 -6 -49 -6 -43 0 -48 2 -48 23 -1 40 -3 45 -23 50
-22 6 -45 -16 -37 -36 10 -26 -9 -38 -55 -35 l-46 3 18 40 c10 22 33 74 50
115 56 132 61 142 65 138 2 -2 31 -67 64 -145z"/>
</g>
</svg>
